<?xml version="1.0" standalone="no"?>
<!DOCTYPE svg PUBLIC "-//W3C//DTD SVG 20010904//EN"
 "http://www.w3.org/TR/2001/REC-SVG-20010904/DTD/svg10.dtd">
<svg version="1.0" xmlns="http://www.w3.org/2000/svg"
 width="900.000000pt" height="900.000000pt" viewBox="0 0 900.000000 900.000000"
 preserveAspectRatio="xMidYMid meet">
<metadata>
Created by potrace 1.11, written by Peter Selinger 2001-2013
</metadata>
<g transform="translate(0.000000,900.000000) scale(0.100000,-0.100000)"
fill="#000000" stroke="none">
<path d="M5257 8515 c-1 -2 -29 -5 -62 -9 -69 -7 -109 -12 -145 -20 -101 -22
-143 -34 -280 -78 -85 -27 -164 -53 -175 -58 -11 -5 -45 -19 -75 -31 -158 -60
-503 -234 -681 -343 -94 -58 -253 -160 -259 -166 -3 -3 -14 -11 -25 -18 -41
-26 -81 -52 -100 -66 -58 -43 -192 -142 -205 -153 -41 -32 -196 -159 -206
-168 -6 -5 -51 -46 -100 -90 -369 -333 -702 -732 -951 -1140 -208 -343 -313
-593 -439 -1050 -71 -258 -121 -524 -151 -810 -9 -95 -9 -573 0 -660 15 -127
67 -436 81 -475 3 -8 7 -26 10 -40 15 -87 69 -273 115 -399 186 -499 473 -752
972 -855 14 -3 44 -8 65 -11 21 -3 50 -8 63 -11 29 -6 297 -6 331 0 24 5 34 7
115 21 116 21 281 90 407 171 170 109 330 314 403 514 23 63 27 92 28 177 0
57 2 103 4 103 12 0 62 -31 65 -40 4 -13 -8 -163 -16 -199 -22 -97 -83 -250
-112 -279 -8 -7 -14 -18 -14 -23 0 -13 -105 -136 -165 -192 -27 -26 -75 -64
-105 -85 -30 -20 -57 -39 -60 -42 -18 -18 -242 -130 -260 -130 -6 0 -10 -6
-10 -14 0 -10 -20 -16 -67 -21 -38 -4 -81 -9 -98 -11 -16 -3 -94 -6 -172 -8
-320 -7 -620 61 -898 201 -27 14 -53 30 -56 36 -9 13 -29 0 -29 -19 0 -16 131
-192 219 -294 31 -36 67 -78 81 -94 93 -108 312 -307 415 -376 28 -19 52 -37
55 -41 10 -15 243 -129 293 -144 88 -26 118 -30 247 -30 126 0 202 6 281 24
24 5 55 12 69 14 80 15 252 76 360 129 338 167 499 371 561 714 42 234 25 408
-51 527 -16 26 -30 49 -30 50 0 3 39 2 66 -2 6 0 25 -31 42 -69 84 -185 97
-355 43 -562 -31 -119 -140 -316 -219 -399 -8 -9 -12 -25 -8 -42 5 -28 6 -28
-77 -95 -9 -8 -20 -14 -23 -14 -2 0 -14 -9 -25 -19 -12 -11 -49 -36 -83 -57
-33 -21 -64 -42 -67 -47 -3 -5 -10 -9 -15 -9 -5 -1 -48 -20 -95 -42 -100 -48
-126 -58 -199 -81 -30 -9 -62 -19 -70 -22 -8 -3 -20 -7 -27 -9 -7 -1 -40 -9
-75 -17 -35 -9 -81 -19 -103 -22 -110 -17 -185 -24 -237 -25 -49 0 -58 -3 -58
-18 0 -10 14 -23 32 -31 164 -73 479 -179 578 -196 19 -3 43 -8 53 -11 70 -22
260 -42 387 -42 263 -1 387 41 590 196 284 219 502 547 540 814 30 208 -25
430 -144 583 -41 52 -50 61 -121 118 -33 26 -66 52 -72 57 -7 6 -24 15 -38 20
-28 11 -32 25 -9 34 32 12 166 -76 247 -163 64 -70 116 -158 147 -250 27 -80
48 -219 44 -291 -10 -196 -15 -252 -23 -267 -6 -10 -26 -55 -45 -101 -19 -46
-51 -112 -70 -147 -91 -162 -275 -356 -442 -466 -102 -67 -114 -76 -114 -88 0
-14 30 -22 48 -12 9 5 44 12 77 15 33 3 80 10 105 16 25 5 88 19 140 30 195
42 526 154 538 182 2 4 12 8 23 8 10 0 19 5 19 10 0 6 5 10 10 10 13 0 108 60
146 92 46 38 94 91 124 134 72 103 158 346 175 494 3 30 8 68 11 84 10 48 6
237 -6 311 -29 178 -97 305 -228 427 -64 58 -80 69 -168 111 -73 35 -115 44
-244 53 -41 3 -76 7 -78 9 -2 1 6 18 16 36 18 32 21 34 68 32 214 -11 390
-109 537 -301 40 -52 127 -208 127 -227 0 -5 6 -16 14 -24 17 -20 28 -126 31
-287 3 -191 -28 -361 -100 -544 -64 -165 -60 -171 53 -86 279 211 455 402 557
603 57 113 74 182 75 302 1 129 -36 332 -79 426 -94 207 -128 263 -204 339
-78 78 -177 146 -212 146 -8 0 -15 4 -15 8 0 5 -35 19 -77 32 -84 25 -245 35
-313 18 -19 -5 -45 -11 -58 -14 -40 -8 -131 -45 -137 -55 -12 -19 -35 -9 -35
16 0 20 11 30 58 53 101 51 158 65 267 65 117 0 195 -18 311 -73 139 -64 197
-111 279 -220 126 -170 223 -400 250 -595 8 -54 21 -85 35 -85 11 0 72 158
105 275 50 171 67 282 69 435 2 181 -28 289 -114 415 -49 70 -170 198 -220
232 -14 9 -27 20 -30 23 -10 14 -120 80 -181 109 -177 85 -389 83 -560 -4 -61
-32 -178 -135 -216 -192 -19 -28 -30 -29 -38 -2 -16 49 123 188 250 250 44 21
114 46 155 54 96 20 289 19 339 -2 146 -61 241 -119 346 -215 76 -68 175 -180
175 -197 0 -6 4 -11 9 -11 5 0 14 -13 21 -30 7 -16 16 -30 20 -30 5 0 16 -3
25 -6 14 -6 16 -1 11 27 -3 19 -8 61 -11 94 -32 372 -181 677 -390 800 -147
86 -262 113 -461 110 -160 -3 -221 -16 -340 -75 -111 -54 -172 -111 -222 -207
-38 -74 -72 -185 -72 -239 0 -30 -9 -30 -39 -3 -23 22 -24 33 -5 129 21 110
125 259 232 332 62 43 167 96 205 105 51 12 327 8 387 -5 75 -17 173 -48 248
-79 89 -37 100 -23 42 59 -58 83 -82 110 -165 193 -88 87 -102 98 -195 155
-60 38 -150 80 -180 86 -3 0 -13 4 -23 9 -10 4 -21 5 -24 2 -3 -4 -13 -2 -23
3 -40 22 -192 13 -300 -17 -70 -20 -262 -112 -280 -134 -3 -4 -25 -23 -50 -44
-89 -73 -156 -172 -190 -279 -8 -24 -11 -69 -7 -120 5 -77 14 -115 50 -197
l16 -35 -29 4 c-42 6 -72 87 -77 212 -11 224 103 422 303 527 133 70 244 102
407 119 54 6 67 10 65 22 -4 20 -82 61 -192 102 -85 31 -106 37 -161 46 -16 3
-44 9 -62 14 -33 8 -242 6 -278 -3 -270 -71 -492 -353 -510 -651 -11 -174 134
-365 303 -401 l34 -7 -53 -24 c-59 -28 -89 -54 -113 -101 -33 -64 -13 -140 49
-182 50 -34 66 -24 58 37 -4 40 -1 58 16 89 23 40 86 86 134 98 33 9 37 -11 5
-24 -53 -20 -98 -83 -98 -136 0 -36 21 -97 41 -122 16 -19 45 0 52 35 6 32 47
76 92 100 30 15 50 16 258 9 l68 -2 15 -53 c9 -30 13 -56 10 -59 -3 -3 -33 13
-66 36 -34 22 -79 45 -99 51 -43 11 -119 11 -127 -1 -2 -5 -11 -6 -19 -2 -8 3
-15 0 -15 -6 0 -6 -6 -11 -13 -11 -36 0 -77 -75 -82 -152 -5 -65 14 -79 57
-43 110 93 221 72 404 -74 5 -4 21 -14 33 -21 22 -11 23 -16 16 -73 -4 -34 -8
-72 -8 -84 -1 -27 -15 -30 -23 -5 -20 65 -76 161 -118 204 -26 27 -50 47 -53
44 -2 -2 -23 4 -46 14 -47 21 -100 19 -145 -4 -85 -44 -141 -196 -59 -159 54
25 207 -8 207 -44 0 -16 0 -16 -46 3 -47 20 -98 20 -149 -2 -79 -33 -135 -94
-86 -94 23 0 108 -37 117 -51 11 -18 0 -19 -46 -3 -47 16 -90 13 -155 -10 -34
-12 -40 -19 -38 -40 2 -31 -2 -32 -53 -7 -48 24 -154 38 -154 22 0 -6 8 -42
18 -79 19 -72 20 -84 8 -149 -8 -45 -69 -146 -106 -176 -53 -44 -134 -96 -200
-128 -72 -36 -122 -79 -117 -100 7 -28 -2 -24 -63 26 -30 25 -58 45 -61 45 -6
0 -9 2 -114 90 -65 54 -80 76 -47 66 185 -54 377 -63 478 -21 46 19 129 107
159 170 35 70 37 141 6 211 -22 50 -95 134 -117 134 -6 0 -19 -26 -28 -58 -35
-127 -116 -208 -247 -252 -70 -23 -240 -29 -330 -12 -25 5 -71 8 -102 7 l-56
-3 -12 37 c-7 20 -30 77 -52 126 -66 150 -116 303 -132 405 -4 25 -9 54 -11
65 -7 34 -7 227 1 275 48 322 170 586 361 786 125 130 306 262 501 366 120 63
366 129 538 145 136 12 378 4 406 -13 12 -7 49 14 49 28 0 6 22 59 49 117 91
196 121 262 121 266 0 7 123 263 262 542 159 321 194 415 224 602 16 102 17
295 2 382 -34 193 -57 272 -135 463 -172 424 -471 876 -629 951 -45 21 -72 26
-154 29 -55 1 -101 2 -103 1z"/>
<path d="M5004 5049 c-3 -5 -9 -7 -13 -5 -10 7 -143 -21 -221 -46 -66 -22
-175 -74 -204 -99 -58 -49 -128 -125 -156 -168 -28 -43 -34 -48 -47 -35 -19
18 -19 18 -62 -8 -34 -22 -45 -30 -93 -70 -12 -10 -25 -18 -30 -18 -4 0 -8 -7
-8 -15 0 -8 -3 -15 -7 -15 -11 0 -78 -60 -68 -60 5 0 -1 -8 -11 -18 -17 -16
-27 -30 -58 -87 -6 -11 -15 -23 -21 -27 -5 -4 -7 -8 -3 -8 4 0 0 -16 -8 -35
-19 -47 -26 -86 -27 -167 -2 -64 -8 -81 -22 -58 -13 21 -24 7 -58 -74 -66
-156 -83 -310 -47 -401 25 -61 35 -81 53 -108 19 -28 19 -29 -2 -48 -24 -22
-24 -45 -1 -177 45 -267 234 -394 490 -328 108 28 160 65 233 164 55 74 72
130 55 180 -5 16 -4 22 7 22 7 0 17 -4 20 -10 9 -14 65 -37 108 -45 44 -7 107
19 115 47 5 20 17 24 27 8 13 -20 -8 -59 -40 -74 -66 -32 -72 -73 -8 -61 71
13 131 71 116 112 -9 27 -34 53 -44 47 -5 -3 -9 -1 -9 5 0 6 -7 8 -16 4 -10
-4 -17 1 -21 16 -5 19 -19 26 -50 22 -16 -2 -16 2 -1 52 11 35 10 41 -7 53
-18 14 -18 15 11 42 17 16 29 37 29 51 0 20 6 24 40 28 21 2 41 6 43 8 10 9
-9 55 -23 55 -7 0 -24 14 -36 31 -30 42 -30 110 1 180 30 69 34 119 11 119
-39 0 -163 162 -176 230 -2 11 -6 24 -9 28 -7 11 -19 92 -21 142 -2 56 22 184
35 188 6 2 8 8 4 13 -3 5 -1 9 4 9 5 0 9 6 9 13 0 15 51 99 67 109 6 4 7 8 3
8 -11 0 54 90 65 90 5 0 7 4 4 8 -3 5 24 40 59 78 65 69 78 105 43 110 -10 1
-20 -2 -24 -7z"/>
</g>
</svg>
